# Blender v2.93.5 OBJ File: 'untitled.blend'
# www.blender.org
mtllib Models/C3.mtl
o Cone_Cone.001
v -2.210691 10.262402 23.394974
v 1.650250 10.262402 23.440899
v 3.095965 10.262402 26.642689
v 1.619078 10.262402 29.850019
v -2.578858 10.262402 29.880838
v -4.141286 10.262402 26.601482
v -2.208535 10.262402 23.399532
v -0.471923 11.695789 26.494972
v -18.674574 0.067378 13.240456
v -18.674574 10.490348 13.240456
v -18.674574 0.067378 4.313965
v -18.674574 10.490348 4.313965
v 17.801546 0.067378 13.240456
v 17.801546 10.490348 13.240456
v 17.801546 0.067378 4.313965
v 17.801546 10.490348 4.313965
v -5.811038 0.067378 22.611076
v -5.811038 10.490348 22.611076
v -5.811038 0.067378 13.169693
v -5.811038 10.490348 13.169693
v 4.830763 0.067378 22.611076
v 4.830763 10.490348 22.611076
v 4.830763 0.067378 13.169693
v 4.830763 10.490348 13.169693
v -6.933290 0.067378 25.678421
v -6.933290 10.490348 25.678421
v -5.128010 0.067378 22.457779
v -5.128010 10.490348 22.457779
v 0.987514 0.067378 32.928436
v -2.197001 0.067378 32.901138
v -2.197001 10.490348 32.901138
v 0.987514 10.490348 32.928436
v 4.426690 0.067378 22.537437
v 5.856105 0.067378 25.545916
v 5.856105 10.490348 25.545916
v 4.426691 10.490348 22.537437
v 1.184192 0.025030 31.647074
v 1.184192 12.072232 31.647074
v 5.487022 0.025030 25.447433
v 5.487022 12.072232 25.447433
v 9.495970 0.025030 37.415821
v 9.495970 12.072232 37.415821
v 13.798799 0.025030 31.216179
v 13.798799 12.072232 31.216179
v -6.778983 0.043890 25.567352
v -6.778983 11.565204 25.567352
v -2.032520 0.043890 32.735909
v -2.032520 11.565204 32.735909
v -14.878615 0.043890 30.930305
v -14.878615 11.565204 30.930305
v -10.132153 0.043890 38.098862
v -10.132153 11.565204 38.098862
v 17.673822 -0.047601 13.276825
v 17.673822 10.545960 13.276825
v 17.792484 -0.047601 4.372707
v 17.792484 10.545960 4.372707
v 32.165237 -0.047601 7.277382
v 32.165237 10.545960 7.277382
v 28.870312 -0.047601 -0.105461
v 28.870312 10.545960 -0.105461
v -18.527634 -0.047601 4.358459
v -18.527634 10.545960 4.358459
v -18.569254 -0.047601 13.285526
v -18.569254 10.545960 13.285526
v -30.325626 -0.047601 -0.167290
v -30.325626 10.545960 -0.167290
v -34.438072 -0.047601 6.793365
v -34.438072 10.545960 6.793365
v -36.721127 -0.077690 5.193314
v -36.721127 7.283680 5.193314
v -32.884594 -0.077690 -1.365711
v -32.884594 7.283680 -1.365711
v -34.182148 -0.077690 6.678421
v -34.182148 7.283680 6.678421
v -30.345617 -0.077690 0.119400
v -30.345617 7.283680 0.119400
v 31.387466 -0.077690 -1.040970
v 31.387466 7.283680 -1.040970
v 34.715435 -0.077690 5.790165
v 34.715435 7.283680 5.790165
v 28.743153 -0.077690 0.247280
v 28.743153 7.283680 0.247280
v 32.071117 -0.077690 7.078415
v 32.071117 7.283680 7.078415
v 1.635622 0.060950 31.651566
v 1.635622 8.860066 31.651566
v 9.733829 0.060950 37.314987
v 9.733829 8.860066 37.314987
v 0.828508 0.060950 32.805668
v 0.828508 8.860066 32.805668
v 8.926716 0.060950 38.469090
v 8.926716 8.860066 38.469090
vt 0.449553 0.116663
vt 0.250000 0.250000
vt 0.419706 0.080294
vt 0.383337 0.050447
vt 0.341844 0.028269
vt 0.296822 0.014612
vt 0.250000 0.010000
vt 0.203178 0.014612
vt 0.375000 0.000000
vt 0.625000 0.000000
vt 0.625000 0.250000
vt 0.375000 0.250000
vt 0.625000 0.500000
vt 0.375000 0.500000
vt 0.625000 0.750000
vt 0.375000 0.750000
vt 0.625000 1.000000
vt 0.375000 1.000000
vt 0.125000 0.500000
vt 0.125000 0.750000
vt 0.875000 0.500000
vt 0.875000 0.750000
vt 0.375000 0.000000
vt 0.625000 0.000000
vt 0.625000 0.250000
vt 0.375000 0.250000
vt 0.625000 0.500000
vt 0.375000 0.500000
vt 0.625000 0.750000
vt 0.375000 0.750000
vt 0.625000 1.000000
vt 0.375000 1.000000
vt 0.125000 0.500000
vt 0.125000 0.750000
vt 0.875000 0.500000
vt 0.875000 0.750000
vt 0.625000 0.500000
vt 0.875000 0.500000
vt 0.875000 0.671534
vt 0.847598 0.750000
vt 0.654411 0.750000
vt 0.625000 0.665782
vt 0.375000 0.250000
vt 0.625000 0.250000
vt 0.375000 0.500000
vt 0.375000 0.779411
vt 0.625000 0.779411
vt 0.625000 0.972598
vt 0.375000 0.972598
vt 0.375000 0.078466
vt 0.625000 0.078466
vt 0.375000 0.000000
vt 0.625000 0.000000
vt 0.375000 0.665782
vt 0.125000 0.500000
vt 0.345589 0.750000
vt 0.152402 0.750000
vt 0.125000 0.671534
vt 0.375000 0.000000
vt 0.625000 0.000000
vt 0.625000 0.250000
vt 0.375000 0.250000
vt 0.625000 0.500000
vt 0.375000 0.500000
vt 0.625000 0.750000
vt 0.375000 0.750000
vt 0.625000 1.000000
vt 0.375000 1.000000
vt 0.125000 0.500000
vt 0.125000 0.750000
vt 0.875000 0.500000
vt 0.875000 0.750000
vt 0.375000 0.000000
vt 0.625000 0.000000
vt 0.625000 0.250000
vt 0.375000 0.250000
vt 0.625000 0.500000
vt 0.375000 0.500000
vt 0.625000 0.750000
vt 0.375000 0.750000
vt 0.625000 1.000000
vt 0.375000 1.000000
vt 0.125000 0.500000
vt 0.125000 0.750000
vt 0.875000 0.500000
vt 0.875000 0.750000
vt 0.375000 0.000000
vt 0.625000 0.000000
vt 0.625000 0.250000
vt 0.375000 0.250000
vt 0.625000 0.500000
vt 0.375000 0.500000
vt 0.625000 0.750000
vt 0.375000 0.750000
vt 0.625000 1.000000
vt 0.375000 1.000000
vt 0.125000 0.500000
vt 0.125000 0.750000
vt 0.875000 0.500000
vt 0.875000 0.750000
vt 0.375000 0.000000
vt 0.625000 0.000000
vt 0.625000 0.250000
vt 0.375000 0.250000
vt 0.625000 0.500000
vt 0.375000 0.500000
vt 0.625000 0.750000
vt 0.375000 0.750000
vt 0.625000 1.000000
vt 0.375000 1.000000
vt 0.125000 0.500000
vt 0.125000 0.750000
vt 0.875000 0.500000
vt 0.875000 0.750000
vt 0.375000 0.000000
vt 0.625000 0.000000
vt 0.625000 0.250000
vt 0.375000 0.250000
vt 0.625000 0.500000
vt 0.375000 0.500000
vt 0.625000 0.750000
vt 0.375000 0.750000
vt 0.625000 1.000000
vt 0.375000 1.000000
vt 0.125000 0.500000
vt 0.125000 0.750000
vt 0.875000 0.500000
vt 0.875000 0.750000
vt 0.375000 0.000000
vt 0.625000 0.000000
vt 0.625000 0.250000
vt 0.375000 0.250000
vt 0.625000 0.500000
vt 0.375000 0.500000
vt 0.625000 0.750000
vt 0.375000 0.750000
vt 0.625000 1.000000
vt 0.375000 1.000000
vt 0.125000 0.500000
vt 0.125000 0.750000
vt 0.875000 0.500000
vt 0.875000 0.750000
vt 0.375000 0.000000
vt 0.625000 0.000000
vt 0.625000 0.250000
vt 0.375000 0.250000
vt 0.625000 0.500000
vt 0.375000 0.500000
vt 0.625000 0.750000
vt 0.375000 0.750000
vt 0.625000 1.000000
vt 0.375000 1.000000
vt 0.125000 0.500000
vt 0.125000 0.750000
vt 0.875000 0.500000
vt 0.875000 0.750000
vn 0.0050 0.9066 -0.4220
vn 0.3735 0.9122 -0.1686
vn 0.3616 0.9173 0.1665
vn 0.0029 0.9202 0.3914
vn -0.3544 0.9197 0.1688
vn -0.3606 0.9070 -0.2177
vn -1.0000 0.0000 0.0000
vn 0.0000 0.0000 -1.0000
vn 1.0000 0.0000 0.0000
vn 0.0000 0.0000 1.0000
vn 0.0000 -1.0000 0.0000
vn 0.0000 1.0000 0.0000
vn -0.8723 0.0000 -0.4890
vn 0.8348 0.0000 0.5505
vn -0.8362 0.0000 0.5484
vn -0.0086 0.0000 1.0000
vn 0.0083 -0.0000 -1.0000
vn 0.9032 0.0000 -0.4292
vn -0.8215 0.0000 -0.5702
vn 0.5702 0.0000 -0.8215
vn 0.8215 0.0000 0.5702
vn -0.5702 0.0000 0.8215
vn 0.8338 0.0000 -0.5521
vn 0.5521 0.0000 0.8338
vn -0.8338 0.0000 0.5521
vn -0.5521 0.0000 -0.8338
vn -0.9999 0.0000 -0.0133
vn -0.3748 0.0000 -0.9271
vn 0.9132 0.0000 -0.4075
vn 0.3825 0.0000 0.9239
vn 1.0000 0.0000 0.0047
vn -0.3787 0.0000 0.9255
vn -0.8610 0.0000 -0.5087
vn 0.3582 0.0000 -0.9337
vn -0.8632 0.0000 -0.5049
vn 0.5049 0.0000 -0.8632
vn 0.8632 0.0000 0.5049
vn -0.5049 0.0000 0.8632
vn 0.8990 0.0000 -0.4380
vn 0.4380 0.0000 0.8990
vn -0.8990 0.0000 0.4380
vn -0.4380 0.0000 -0.8990
vn 0.5731 0.0000 -0.8195
vn 0.8195 0.0000 0.5731
vn -0.5731 0.0000 0.8195
vn -0.8195 0.0000 -0.5731
usemtl None
s off
f 1/1/1 8/2/1 2/3/1
f 2/3/2 8/2/2 3/4/2
f 3/4/3 8/2/3 4/5/3
f 4/5/4 8/2/4 5/6/4
f 5/6/5 8/2/5 6/7/5
f 6/7/6 8/2/6 7/8/6
f 9/9/7 10/10/7 12/11/7 11/12/7
f 11/12/8 12/11/8 16/13/8 15/14/8
f 15/14/9 16/13/9 14/15/9 13/16/9
f 13/16/10 14/15/10 10/17/10 9/18/10
f 11/19/11 15/14/11 13/16/11 9/20/11
f 16/13/12 12/21/12 10/22/12 14/15/12
f 17/23/7 18/24/7 20/25/7 19/26/7
f 19/26/8 20/25/8 24/27/8 23/28/8
f 23/28/9 24/27/9 22/29/9 21/30/9
f 21/30/10 22/29/10 18/31/10 17/32/10
f 19/33/11 23/28/11 21/30/11 17/34/11
f 24/27/12 20/35/12 18/36/12 22/29/12
f 28/37/12 26/38/12 31/39/12 32/40/12 35/41/12 36/42/12
f 25/43/13 26/44/13 28/37/13 27/45/13
f 34/46/14 35/47/14 32/48/14 29/49/14
f 30/50/15 31/51/15 26/44/15 25/43/15
f 29/52/16 32/53/16 31/51/16 30/50/16
f 27/45/17 28/37/17 36/42/17 33/54/17
f 35/47/18 34/46/18 33/54/18 36/42/18
f 25/55/11 27/45/11 33/54/11 34/56/11 29/57/11 30/58/11
f 37/59/19 38/60/19 40/61/19 39/62/19
f 39/62/20 40/61/20 44/63/20 43/64/20
f 43/64/21 44/63/21 42/65/21 41/66/21
f 41/66/22 42/65/22 38/67/22 37/68/22
f 39/69/11 43/64/11 41/66/11 37/70/11
f 44/63/12 40/71/12 38/72/12 42/65/12
f 45/73/23 46/74/23 48/75/23 47/76/23
f 47/76/24 48/75/24 52/77/24 51/78/24
f 51/78/25 52/77/25 50/79/25 49/80/25
f 49/80/26 50/79/26 46/81/26 45/82/26
f 47/83/11 51/78/11 49/80/11 45/84/11
f 52/77/12 48/85/12 46/86/12 50/79/12
f 53/87/27 54/88/27 56/89/27 55/90/27
f 55/90/28 56/89/28 60/91/28 59/92/28
f 59/92/29 60/91/29 58/93/29 57/94/29
f 57/94/30 58/93/30 54/95/30 53/96/30
f 55/97/11 59/92/11 57/94/11 53/98/11
f 60/91/12 56/99/12 54/100/12 58/93/12
f 61/101/31 62/102/31 64/103/31 63/104/31
f 63/104/32 64/103/32 68/105/32 67/106/32
f 67/106/33 68/105/33 66/107/33 65/108/33
f 65/108/34 66/107/34 62/109/34 61/110/34
f 63/111/11 67/106/11 65/108/11 61/112/11
f 68/105/12 64/113/12 62/114/12 66/107/12
f 69/115/35 70/116/35 72/117/35 71/118/35
f 71/118/36 72/117/36 76/119/36 75/120/36
f 75/120/37 76/119/37 74/121/37 73/122/37
f 73/122/38 74/121/38 70/123/38 69/124/38
f 71/125/11 75/120/11 73/122/11 69/126/11
f 76/119/12 72/127/12 70/128/12 74/121/12
f 77/129/39 78/130/39 80/131/39 79/132/39
f 79/132/40 80/131/40 84/133/40 83/134/40
f 83/134/41 84/133/41 82/135/41 81/136/41
f 81/136/42 82/135/42 78/137/42 77/138/42
f 79/139/11 83/134/11 81/136/11 77/140/11
f 84/133/12 80/141/12 78/142/12 82/135/12
f 85/143/43 86/144/43 88/145/43 87/146/43
f 87/146/44 88/145/44 92/147/44 91/148/44
f 91/148/45 92/147/45 90/149/45 89/150/45
f 89/150/46 90/149/46 86/151/46 85/152/46
f 87/153/11 91/148/11 89/150/11 85/154/11
f 92/147/12 88/155/12 86/156/12 90/149/12
